<svg width="15" height="15" viewBox="0 0 15 15" fill="none" xmlns="http://www.w3.org/2000/svg">
<g clip-path="url(#clip0)">
<path d="M1.89971 1.5827H11.6977V4.38212H13.0974V1.5827C13.0974 1.21147 12.9499 0.855447 12.6874 0.59295C12.4249 0.330453 12.0689 0.182983 11.6977 0.182983L1.89971 0.182983C1.52849 0.182983 1.17246 0.330453 0.909966 0.59295C0.647469 0.855447 0.5 1.21147 0.5 1.5827L0.5 12.0805C0.5 12.4518 0.647469 12.8078 0.909966 13.0703C1.17246 13.3328 1.52849 13.4803 1.89971 13.4803H6.09885V12.0805H1.89971V1.5827Z" fill="#797C7F"/>
<path d="M3.99932 3.68225C3.81372 3.68228 3.63574 3.75602 3.50451 3.88727C3.37328 4.01851 3.29956 4.19651 3.29956 4.38211C3.29956 4.5677 3.37328 4.7457 3.50451 4.87695C3.63574 5.00819 3.81372 5.08194 3.99932 5.08196H9.59817C9.78376 5.08194 9.96175 5.00819 10.093 4.87695C10.2242 4.7457 10.2979 4.5677 10.2979 4.38211C10.2979 4.19651 10.2242 4.01851 10.093 3.88727C9.96175 3.75602 9.78376 3.68228 9.59817 3.68225H3.99932ZM6.09889 6.48168H3.99932C3.81372 6.4817 3.63574 6.55545 3.50451 6.68669C3.37328 6.81794 3.29956 6.99594 3.29956 7.18153C3.29956 7.36713 3.37328 7.54512 3.50451 7.67637C3.63574 7.80762 3.81372 7.88136 3.99932 7.88139H6.09889C6.28448 7.88136 6.46247 7.80762 6.5937 7.67637C6.72492 7.54512 6.79865 7.36713 6.79865 7.18153C6.79865 6.99594 6.72492 6.81794 6.5937 6.68669C6.46247 6.55545 6.28448 6.4817 6.09889 6.48168ZM14.2942 12.9833L13.2164 11.9056C13.6938 11.1819 13.8857 10.3069 13.7547 9.44988C13.6237 8.59291 13.1793 7.81506 12.5076 7.26705C11.8358 6.71904 10.9846 6.43989 10.1188 6.48369C9.25294 6.52749 8.43421 6.89113 7.8212 7.50414C7.2082 8.11714 6.84456 8.93588 6.80076 9.80169C6.75695 10.6675 7.0361 11.5188 7.58411 12.1905C8.13212 12.8623 8.90998 13.3067 9.76695 13.4376C10.6239 13.5686 11.499 13.3768 12.2226 12.8994L13.3004 13.9771C13.3657 14.0424 13.4431 14.0942 13.5284 14.1295C13.6136 14.1648 13.705 14.183 13.7973 14.183C13.8896 14.183 13.981 14.1648 14.0662 14.1295C14.1515 14.0942 14.2289 14.0424 14.2942 13.9771C14.3595 13.9119 14.4112 13.8344 14.4465 13.7492C14.4818 13.6639 14.5 13.5725 14.5 13.4802C14.5 13.388 14.4818 13.2966 14.4465 13.2113C14.4112 13.1261 14.3595 13.0486 14.2942 12.9833ZM8.19846 9.98096C8.19846 9.5657 8.32159 9.15977 8.5523 8.8145C8.783 8.46923 9.11091 8.20012 9.49455 8.04121C9.8782 7.8823 10.3004 7.84072 10.7076 7.92173C11.1149 8.00274 11.489 8.20271 11.7826 8.49634C12.0763 8.78997 12.2762 9.16407 12.3573 9.57135C12.4383 9.97863 12.3967 10.4008 12.2378 10.7844C12.0789 11.1681 11.8098 11.496 11.4645 11.7267C11.1192 11.9574 10.7133 12.0805 10.298 12.0805C9.74118 12.0805 9.20715 11.8593 8.81341 11.4656C8.41966 11.0718 8.19846 10.5378 8.19846 9.98096Z" fill="#797C7F"/>
</g>
<defs>
<clipPath id="clip0">
<rect width="14" height="14" fill="white" transform="translate(0.5 0.182983)"/>
</clipPath>
</defs>
</svg>
