<svg width="24" height="24" viewBox="0 0 24 24" fill="none" xmlns="http://www.w3.org/2000/svg">
<path d="M12.8736 13.5839C12.8144 14.2304 12.4034 14.5326 11.9976 14.5326C11.6961 14.5326 11.9976 14.5326 11.9976 14.5326C11.6121 14.4599 11.3129 14.2956 11.1816 13.6416L10.6514 7.52914C10.6514 6.91489 11.3984 6.37114 12.0321 6.37114C12.6659 6.37114 13.3484 6.93964 13.3484 7.55314L12.8736 13.5839ZM11.9999 15.3321C11.3661 15.3321 10.8516 15.8459 10.8516 16.4804C10.8516 17.1149 11.3654 17.6294 11.9999 17.6294C12.6344 17.6294 13.1481 17.1149 13.1481 16.4804C13.1481 15.8466 12.6344 15.3321 11.9999 15.3321ZM21.0891 11.9999C21.0891 17.0196 17.0204 21.0884 11.9991 21.0884C6.98014 21.0884 2.91064 17.0196 2.91064 11.9999C2.91064 6.98014 6.98014 2.91064 11.9991 2.91064C17.0196 2.91064 21.0891 6.98014 21.0891 11.9999ZM19.4061 11.9999C19.4061 7.90939 16.0904 4.59439 11.9999 4.59439C7.90939 4.59439 4.59439 7.90939 4.59439 11.9999C4.59439 16.0896 7.90939 19.4054 11.9999 19.4054C16.0904 19.4054 19.4061 16.0896 19.4061 11.9999Z" fill="#F79736"/>
</svg>
