<svg width="24" height="24" viewBox="0 0 24 24" fill="none" xmlns="http://www.w3.org/2000/svg">
<path d="M13.8541 20.9002C14.2657 20.9002 14.5994 21.2103 14.5994 21.593C14.5994 21.9701 14.2752 22.2769 13.8717 22.2856L13.8541 22.2858H10.1847C9.77307 22.2858 9.43935 21.9756 9.43935 21.593C9.43935 21.2158 9.7636 20.909 10.1671 20.9003L10.1847 20.9002H13.8541ZM14.8574 18.9455C15.2691 18.9455 15.6028 19.2557 15.6028 19.6383C15.6028 20.0154 15.2785 20.3222 14.875 20.3309L14.8574 20.3311H9.14262C8.73099 20.3311 8.39728 20.0209 8.39728 19.6383C8.39728 19.2611 8.72152 18.9543 9.12503 18.9457L9.14262 18.9455H14.8574ZM12 1.71436C16.7339 1.71436 20.5714 5.28151 20.5714 9.68178C20.5714 12.4645 19.0367 14.914 16.7112 16.3389L16.6562 16.5794C16.6184 16.7435 16.5683 16.9584 16.506 17.2241C16.3583 17.8538 15.7634 18.3047 15.0721 18.3145H8.91627C8.20564 18.3145 7.59378 17.8482 7.45449 17.2005L7.3858 16.8848C7.30305 16.5097 7.25558 16.3184 7.2434 16.3108C4.94332 14.882 3.42859 12.4463 3.42859 9.68178C3.42859 5.28151 7.26615 1.71436 12 1.71436ZM10.4406 4.81717C7.91999 5.25452 6.67507 6.84748 6.52577 9.36012C6.50307 9.74217 6.81784 10.069 7.22887 10.0901C7.63988 10.1112 7.99148 9.81857 8.01418 9.43654C8.1283 7.51592 8.93112 6.48866 10.7141 6.17928C11.1188 6.10907 11.3856 5.74724 11.31 5.37109C11.2345 4.99494 10.8452 4.74695 10.4406 4.81717Z" fill="#F79736"/>
</svg>
