<!-- Generated by IcoMoon.io -->
<svg version="1.1" xmlns="http://www.w3.org/2000/svg" width="32" height="32" viewBox="0 0 32 32">
<title>tishi</title>
<path d="M12.165 27.867c0.264 2.252 2.179 4 4.502 4s4.238-1.748 4.502-4h9.498c0.663 0 1.2-0.537 1.2-1.2s-0.537-1.2-1.2-1.2h-3.2v-13.702c0-6.406-5.116-11.631-11.467-11.631s-11.467 5.226-11.467 11.631v13.702h-3.2c-0.663 0-1.2 0.537-1.2 1.2s0.537 1.2 1.2 1.2h10.831zM6.933 11.765c0-5.116 4.077-9.231 9.067-9.231s9.067 4.115 9.067 9.231v13.702h-18.133v-13.702zM14.601 27.867h4.132c-0.237 0.92-1.072 1.6-2.066 1.6s-1.829-0.68-2.066-1.6z"></path>
</svg>
