<svg width="14" height="14" viewBox="0 0 14 14" fill="none" xmlns="http://www.w3.org/2000/svg">
<path d="M8.63235 4.55963C7.99015 4.11009 7.2195 3.98165 6.44886 4.11009C5.67822 4.30275 5.03602 4.75229 4.58648 5.3945C4.13694 6.0367 4.0085 6.80734 4.13694 7.57798C4.39382 8.99083 5.614 9.95413 7.02684 9.95413C7.15528 9.95413 7.34795 9.95413 7.47639 9.88991H7.60483C8.76079 9.63303 9.65987 8.73394 9.91675 7.57798C9.98097 7.19266 9.98097 6.80734 9.91675 6.42202C9.72409 5.65138 9.27455 5.00917 8.63235 4.55963ZM8.63235 7.3211C8.50391 7.9633 8.05437 8.41284 7.41217 8.6055H7.34795C6.44886 8.79817 5.614 8.22018 5.42134 7.3211C5.35712 6.87156 5.42134 6.48624 5.67822 6.10092C5.9351 5.7156 6.32042 5.52294 6.70574 5.3945H7.02684C7.79749 5.3945 8.50391 5.90826 8.63235 6.6789V7.3211ZM13.3846 7.89908L12.614 7.44954V7V6.61468L13.3846 6.16514C13.8984 5.84404 14.0268 5.20184 13.77 4.75229L12.3571 2.31193C12.036 1.79817 11.3938 1.66972 10.9443 1.92661L10.1094 2.37615C9.91675 2.18349 9.72409 2.05505 9.46721 1.92661V1.02752C9.46721 0.513761 9.01767 0 8.43969 0H5.614C5.03602 0 4.52226 0.449541 4.52226 1.02752V1.92661C4.3296 2.05505 4.07272 2.18349 3.88006 2.31193L3.04519 1.86239C2.59565 1.6055 1.95345 1.73394 1.63235 2.24771L0.219505 4.75229C-0.0373759 5.20184 0.0910645 5.84404 0.604826 6.16514L1.37547 6.61468V7.44954L0.604826 7.89908C0.0910645 8.22018 -0.0373759 8.86238 0.219505 9.31193L1.63235 11.7523C1.95345 12.2661 2.59565 12.3945 3.04519 12.1376L3.81583 11.6881C4.0085 11.8165 4.26538 12.0092 4.52226 12.0734V12.9725C4.52226 13.5505 4.9718 14 5.54978 14H8.43969C9.01767 14 9.46721 13.5505 9.46721 12.9725V12.0734C9.72409 11.945 9.91675 11.8165 10.1094 11.6881L10.8801 12.1376C11.3938 12.3945 12.036 12.2661 12.2929 11.7523L13.7057 9.31193C14.0911 8.79816 13.8984 8.15596 13.3846 7.89908ZM11.8434 8.47706L12.5498 8.86238L11.3938 10.9174L10.7516 10.5321C10.4305 10.2752 9.98097 10.2752 9.59565 10.5321C9.33877 10.7248 9.14611 10.8532 8.82501 10.9817C8.43969 11.1743 8.24703 11.5596 8.24703 11.945V12.7798H5.80666V11.945C5.80666 11.4954 5.54978 11.1743 5.16446 10.9817C4.90758 10.8532 4.6507 10.7248 4.39382 10.5321C4.07272 10.2752 3.62317 10.2752 3.30207 10.4679L2.65987 10.9174L1.50391 8.86238L2.21033 8.47706C2.59565 8.2844 2.78831 7.83486 2.72409 7.44954V6.61468C2.72409 6.16514 2.53143 5.77982 2.14611 5.58716L1.43969 5.13761L2.65987 3.08257L3.30207 3.46789C3.62317 3.72477 4.07272 3.72477 4.45804 3.46789C4.71492 3.27523 4.90758 3.14679 5.16446 3.01835C5.54978 2.82569 5.80666 2.50459 5.80666 2.05505V1.2844H8.18281V2.11927C8.18281 2.50459 8.43969 2.88991 8.82501 3.08257C9.08189 3.21101 9.33877 3.33945 9.59565 3.53211C9.91675 3.78899 10.3663 3.78899 10.6874 3.53211L11.3938 3.14679L12.5498 5.13761L11.8434 5.52294C11.458 5.7156 11.2654 6.16514 11.3296 6.48624V7.3211C11.2654 7.83486 11.5223 8.2844 11.8434 8.47706Z" fill="#3091F2"/>
</svg>
