<svg width="34" height="34" viewBox="0 0 34 34" fill="none" xmlns="http://www.w3.org/2000/svg">
<path d="M18.3618 19.4697C18.2694 20.4774 17.6288 20.9485 16.9964 20.9485C16.5265 20.9485 16.9964 20.9485 16.9964 20.9485C16.3956 20.8351 15.9291 20.5791 15.7246 19.5597L14.8981 10.0323C14.8981 9.07485 16.0624 8.22732 17.0502 8.22732C18.038 8.22732 19.1017 9.11343 19.1017 10.0697L18.3618 19.4697ZM16.9999 22.1947C16.0121 22.1947 15.2102 22.9954 15.2102 23.9844C15.2102 24.9734 16.011 25.7754 16.9999 25.7754C17.9889 25.7754 18.7896 24.9734 18.7896 23.9844C18.7896 22.9966 17.9889 22.1947 16.9999 22.1947ZM31.1666 17.0007C31.1666 24.8249 24.825 31.1668 16.9988 31.1668C9.17605 31.1668 2.83325 24.8249 2.83325 17.0007C2.83325 9.17655 9.17605 2.8335 16.9988 2.8335C24.8238 2.8335 31.1666 9.17655 31.1666 17.0007ZM28.5434 17.0007C28.5434 10.625 23.3754 5.45793 16.9999 5.45793C10.6244 5.45793 5.45757 10.625 5.45757 17.0007C5.45757 23.3754 10.6244 28.5436 16.9999 28.5436C23.3754 28.5436 28.5434 23.3754 28.5434 17.0007Z" fill="#FF5959"/>
</svg>
